<svg xmlns="http://www.w3.org/2000/svg" id="Layer_1" data-name="Layer 1" viewBox="25.8 23.77 308.51 79.84"><defs><style>.cls-1{fill:#143156;}.cls-2{fill:#b2a268;}</style></defs><path class="cls-1" d="M176.31,68.59h27.26a.45.45,0,0,1,.51.5V77.2a.45.45,0,0,1-.51.51h-4.36a.45.45,0,0,1-.51-.51v-3a.27.27,0,0,0-.3-.3h-5.17a.27.27,0,0,0-.3.3V97.77a.27.27,0,0,0,.3.3h2.64a.45.45,0,0,1,.5.51v4a.45.45,0,0,1-.5.51H184a.44.44,0,0,1-.5-.51v-4a.44.44,0,0,1,.5-.51h2.64a.27.27,0,0,0,.3-.3V74.16a.27.27,0,0,0-.3-.3h-5.17a.27.27,0,0,0-.31.3v3a.44.44,0,0,1-.5.51h-4.36a.45.45,0,0,1-.51-.51V69.09A.45.45,0,0,1,176.31,68.59Z"/><path class="cls-1" d="M212.52,78.06a11,11,0,0,1,6.38,1.8,9.26,9.26,0,0,1,3.65,4.94,25.12,25.12,0,0,1,.81,7.35c0,.33-.19.5-.56.5h-15a.27.27,0,0,0-.31.31,5.34,5.34,0,0,0,.36,1.87q1.26,3.7,5.47,3.7A7.37,7.37,0,0,0,219,96.2c.27-.27.53-.3.76-.1l3,2.63a.46.46,0,0,1,.05.71q-3.54,4.16-10,4.16a11.33,11.33,0,0,1-6.51-1.8,9.2,9.2,0,0,1-3.67-5,19.37,19.37,0,0,1-.86-6,19.91,19.91,0,0,1,.81-6,9.08,9.08,0,0,1,3.67-5A11.12,11.12,0,0,1,212.52,78.06Zm0,4.81q-3.75,0-4.81,3.15a6.3,6.3,0,0,0-.31,2.07.27.27,0,0,0,.31.31h9.57a.28.28,0,0,0,.31-.31,6.58,6.58,0,0,0-.31-2.07,4.45,4.45,0,0,0-1.77-2.31A5.29,5.29,0,0,0,212.57,82.87Z"/><path class="cls-1" d="M237.65,78.06A16.59,16.59,0,0,1,246.06,80a.68.68,0,0,1,.41.66v5.57a.44.44,0,0,1-.51.5h-4.31a.44.44,0,0,1-.5-.5V84c0-.14-.09-.25-.26-.36a7.31,7.31,0,0,0-3.09-.5q-3.95,0-5,3.19a15.05,15.05,0,0,0-.51,4.51,15.24,15.24,0,0,0,.51,4.56q1.07,3.14,5,3.14a7.32,7.32,0,0,0,3.09-.46.35.35,0,0,0,.26-.35V95.44a.45.45,0,0,1,.5-.51H246a.45.45,0,0,1,.51.51v5.62a.68.68,0,0,1-.41.66,18,18,0,0,1-8.41,1.88c-5.5,0-9-2.2-10.38-6.59a20.08,20.08,0,0,1-.76-6.18,19.46,19.46,0,0,1,.76-6,9,9,0,0,1,3.77-5A11.91,11.91,0,0,1,237.65,78.06Z"/><path class="cls-1" d="M250.14,68.59h7.65a.45.45,0,0,1,.51.5V80.9h.05q2-2.84,6.33-2.84a7.87,7.87,0,0,1,6.1,2.53,9.33,9.33,0,0,1,2.31,6.54V97.77a.27.27,0,0,0,.3.3h2.08a.45.45,0,0,1,.51.51v4a.45.45,0,0,1-.51.51H264.93a.44.44,0,0,1-.5-.51v-4a.44.44,0,0,1,.5-.51h2.18a.27.27,0,0,0,.31-.3V88.45a6,6,0,0,0-1.17-3.88,4.69,4.69,0,0,0-6.76,0,5.88,5.88,0,0,0-1.19,3.88v9.32a.27.27,0,0,0,.3.3h2.18a.44.44,0,0,1,.5.51v4a.44.44,0,0,1-.5.51H250.14a.45.45,0,0,1-.51-.51v-4a.45.45,0,0,1,.51-.51h2.18a.27.27,0,0,0,.3-.3V73.86c0-.21-.1-.31-.3-.31h-2.18a.45.45,0,0,1-.51-.5v-4A.45.45,0,0,1,250.14,68.59Z"/><path class="cls-1" d="M282.29,98.07h0a2.5,2.5,0,1,0,2.46,2.49A2.47,2.47,0,0,0,282.28,98.07Zm0,4.6a2.11,2.11,0,0,1,0-4.21h0a2.11,2.11,0,0,1,0,4.21Z"/><path class="cls-1" d="M282.73,100.65v0a.7.7,0,0,0,.55-.68.65.65,0,0,0-.26-.57,1.45,1.45,0,0,0-.86-.21,4.37,4.37,0,0,0-.79.07V102h.45v-1.2h.31a.52.52,0,0,1,.59.49,2,2,0,0,0,.19.71h.47a2,2,0,0,1-.18-.69C283.14,100.92,283,100.69,282.73,100.65Zm-.59-.18h-.32v-.94l.32,0c.49,0,.67.24.67.49S282.5,100.47,282.14,100.47Z"/><path class="cls-1" d="M183.63,23.87a19,19,0,0,1,6,.94,13.38,13.38,0,0,1,4.59,2.4.92.92,0,0,1,.35.71V34a.45.45,0,0,1-.51.51H189.5A.45.45,0,0,1,189,34V31a.46.46,0,0,0-.21-.4,9.48,9.48,0,0,0-5.32-1.37q-5.57,0-7.14,4.61a28.09,28.09,0,0,0-.81,7.9,30.32,30.32,0,0,0,.66,7.81,6.5,6.5,0,0,0,2.41,3.36,8,8,0,0,0,4.63,1.14,10.49,10.49,0,0,0,5.63-1.21.92.92,0,0,0,.5-.81V45.3a.27.27,0,0,0-.3-.3h-5.47a.45.45,0,0,1-.51-.51V40.44a.45.45,0,0,1,.51-.51h11a.45.45,0,0,1,.51.51V55a1.4,1.4,0,0,1-.66,1.21,19,19,0,0,1-11.35,3.25q-10.19,0-12.82-8.06-.86-2.58-.86-9.63c0-4.42.32-7.6,1-9.52Q173.08,23.86,183.63,23.87Z"/><path class="cls-1" d="M210.36,33.9a11.07,11.07,0,0,1,6.39,1.8,9.21,9.21,0,0,1,3.64,4.94A25.09,25.09,0,0,1,221.2,48c0,.34-.18.51-.55.51H205.6a.27.27,0,0,0-.3.3,5.33,5.33,0,0,0,.35,1.88c.84,2.47,2.67,3.7,5.47,3.7A7.39,7.39,0,0,0,216.85,52c.27-.27.52-.31.76-.1l3,2.63a.47.47,0,0,1,.05.71q-3.56,4.15-10,4.16a11.39,11.39,0,0,1-6.52-1.8,9.25,9.25,0,0,1-3.67-5,19.67,19.67,0,0,1-.86-6,19.91,19.91,0,0,1,.81-6,9.13,9.13,0,0,1,3.67-5A11.15,11.15,0,0,1,210.36,33.9Zm0,4.81q-3.75,0-4.81,3.14a6.65,6.65,0,0,0-.3,2.08.27.27,0,0,0,.3.31h9.58a.27.27,0,0,0,.3-.31,6.65,6.65,0,0,0-.3-2.08,4.43,4.43,0,0,0-1.78-2.3A5.27,5.27,0,0,0,210.41,38.71Z"/><path class="cls-1" d="M236,33.9a11.24,11.24,0,0,1,6.36,1.77,9.13,9.13,0,0,1,3.67,5,19.55,19.55,0,0,1,.81,6,19.64,19.64,0,0,1-.81,6,9.11,9.11,0,0,1-3.67,5,12.34,12.34,0,0,1-12.77,0,9.06,9.06,0,0,1-3.67-5,19.64,19.64,0,0,1-.81-6,19.55,19.55,0,0,1,.81-6,9.08,9.08,0,0,1,3.67-5A11.3,11.3,0,0,1,236,33.9ZM236,39a4.34,4.34,0,0,0-4.61,3.19,15.65,15.65,0,0,0-.51,4.51,15.37,15.37,0,0,0,.51,4.51,4.89,4.89,0,0,0,9.17,0,15.37,15.37,0,0,0,.51-4.51,15.65,15.65,0,0,0-.51-4.51A4.32,4.32,0,0,0,236,39Z"/><path class="cls-1" d="M264.66,34.1a11.12,11.12,0,0,1,2.38.26c.33.06.5.23.5.5v4.41c0,.44-.2.61-.61.51a19.91,19.91,0,0,0-3-.41c-3.65,0-5.48,2.1-5.48,6.28v8a.27.27,0,0,0,.31.3h2.38a.45.45,0,0,1,.51.51v3.95a.45.45,0,0,1-.51.51H250.32a.45.45,0,0,1-.51-.51V54.42a.45.45,0,0,1,.51-.51h2.18a.27.27,0,0,0,.3-.3V39.73c0-.21-.1-.31-.3-.31h-2.18a.45.45,0,0,1-.51-.5V35a.45.45,0,0,1,.51-.5H258a.44.44,0,0,1,.5.5V37.5h0A6.75,6.75,0,0,1,264.66,34.1Z"/><path class="cls-1" d="M278.78,33.93c3,0,5.12,1,6.33,2.89h.05V35a.45.45,0,0,1,.51-.51h7.65a.45.45,0,0,1,.51.51v4a.44.44,0,0,1-.51.5h-2.18a.27.27,0,0,0-.3.31V57.39q0,5.32-2.92,8.26t-8.48,2.94a13.31,13.31,0,0,1-5-1,9.34,9.34,0,0,1-3.83-2.66.47.47,0,0,1,.05-.71l3-3a.46.46,0,0,1,.76,0,7.52,7.52,0,0,0,5.32,2.28q5.47,0,5.47-5.83V55.41h-.05c-1.21,1.9-3.33,2.84-6.33,2.84a8.78,8.78,0,0,1-5.22-1.52,8.49,8.49,0,0,1-3.09-4.41,20.34,20.34,0,0,1-.81-6.23,20.22,20.22,0,0,1,.81-6.18Q272.39,33.94,278.78,33.93ZM280.25,39a4.14,4.14,0,0,0-4.31,3.09,12.43,12.43,0,0,0-.56,4,11.85,11.85,0,0,0,.56,4,4.55,4.55,0,0,0,8.66,0,11.61,11.61,0,0,0,.56-4,12.16,12.16,0,0,0-.56-4A4.16,4.16,0,0,0,280.25,39Z"/><path class="cls-1" d="M297.07,34.46h7.65a.45.45,0,0,1,.51.5V53.61a.27.27,0,0,0,.3.3h2.18a.45.45,0,0,1,.51.51v3.95a.45.45,0,0,1-.51.51H297.07a.45.45,0,0,1-.51-.51V54.42a.45.45,0,0,1,.51-.51h2.18a.27.27,0,0,0,.3-.3V39.73c0-.21-.1-.31-.3-.31h-2.18a.45.45,0,0,1-.51-.5V35A.45.45,0,0,1,297.07,34.46Zm3-10h4.66a.44.44,0,0,1,.51.5v4.41a.45.45,0,0,1-.51.51h-4.66a.45.45,0,0,1-.51-.51V24.93A.44.44,0,0,1,300.06,24.43Z"/><path class="cls-1" d="M321.18,33.9q5.52,0,7.82,2t2.31,6.53v11.2a.27.27,0,0,0,.3.3h2.18a.45.45,0,0,1,.51.51v3.95a.45.45,0,0,1-.51.51h-7.24a.45.45,0,0,1-.51-.51V56.6H326q-2,2.84-6.79,2.84a8.85,8.85,0,0,1-5.85-1.93A6.83,6.83,0,0,1,311,51.94a6.94,6.94,0,0,1,2.56-5.86,11.62,11.62,0,0,1,7.17-1.95h4.87a.27.27,0,0,0,.3-.3v-1a4.21,4.21,0,0,0-1.09-3.24q-1.1-1-3.93-1a11.25,11.25,0,0,0-2.63.31c-.17,0-.25.15-.25.35v2.18a.45.45,0,0,1-.51.51h-4.41a.45.45,0,0,1-.51-.51V36.28a.7.7,0,0,1,.41-.66A18.65,18.65,0,0,1,321.18,33.9Zm4.46,14.49h-4q-5.22,0-5.22,3.34,0,3.09,4.16,3.09,5.33,0,5.32-4.15v-2A.27.27,0,0,0,325.64,48.39Z"/><path class="cls-2" d="M138,98.46h0a2.28,2.28,0,1,0,2.24,2.27A2.26,2.26,0,0,0,137.94,98.46Zm0,4.2a1.93,1.93,0,0,1,0-3.85h0a1.93,1.93,0,0,1,0,3.85Z"/><path class="cls-2" d="M138.35,100.81v0a.63.63,0,0,0,.5-.62.6.6,0,0,0-.23-.52,1.38,1.38,0,0,0-.79-.19,4.63,4.63,0,0,0-.72.06v2.53h.41V101h.28a.47.47,0,0,1,.54.45,1.85,1.85,0,0,0,.17.64h.43a2.07,2.07,0,0,1-.16-.62C138.73,101.05,138.57,100.85,138.35,100.81Zm-.54-.16h-.29v-.86l.29,0c.45,0,.61.22.61.45S138.14,100.65,137.81,100.65Z"/><path class="cls-2" d="M66,24.36h0Z"/><path class="cls-2" d="M76.53,49.21V69H87.17l1.12-6h4.78C91.32,72.16,82.3,78.43,70.86,78.43c-.78,0-1.57,0-2.36-.09A31.4,31.4,0,0,1,52.11,72.6,16.73,16.73,0,0,1,45,58.89a20.25,20.25,0,0,1,7-15.2A25.88,25.88,0,0,1,68.06,37.4c.38,0,.77,0,1.16,0a33.31,33.31,0,0,1,20.51,7.51c.29.24.36.29.43.34a4.36,4.36,0,0,1,.41.33l.16.14h12.21V24.36H90.57v6.11A47.15,47.15,0,0,0,66,23.77h-.17a42.89,42.89,0,0,0-30.24,12.7C29.19,43,25.7,51,25.8,59c.12,8.6,4.26,16.61,11.67,22.55a42.72,42.72,0,0,0,26.36,9c1.19,0,2.4,0,3.59-.14,9.57-.78,18-3,24-6.17l0,2.64h13.14V63.1h4.54V90.64h-6.85V103h30.57V90.64H126V63.09h15.48l1.08,6h10.68V49.21ZM66,24.36h0Z"/></svg>